<mxfile host="65bd71144e">
    <diagram id="2FZCEFIGFviBtUF47QQc" name="Page-1">
        <mxGraphModel dx="1545" dy="899" grid="1" gridSize="10" guides="1" tooltips="1" connect="1" arrows="1" fold="1" page="1" pageScale="1" pageWidth="850" pageHeight="1100" math="0" shadow="0">
            <root>
                <mxCell id="0"/>
                <mxCell id="1" parent="0"/>
                <mxCell id="xE52-ZA0a7gBxuOxElXl-17" style="edgeStyle=orthogonalEdgeStyle;rounded=0;orthogonalLoop=1;jettySize=auto;html=1;entryX=0;entryY=0.5;entryDx=0;entryDy=0;exitX=1;exitY=0.5;exitDx=0;exitDy=0;" parent="1" source="IRRYlkSZuKNls5PHsRoB-1" target="xE52-ZA0a7gBxuOxElXl-14" edge="1">
                    <mxGeometry relative="1" as="geometry">
                        <mxPoint x="443" y="550.5" as="sourcePoint"/>
                    </mxGeometry>
                </mxCell>
                <mxCell id="xE52-ZA0a7gBxuOxElXl-18" style="edgeStyle=orthogonalEdgeStyle;rounded=0;orthogonalLoop=1;jettySize=auto;html=1;entryX=0;entryY=0.5;entryDx=0;entryDy=0;" parent="1" target="xE52-ZA0a7gBxuOxElXl-15" edge="1">
                    <mxGeometry relative="1" as="geometry">
                        <mxPoint x="443" y="560" as="sourcePoint"/>
                    </mxGeometry>
                </mxCell>
                <mxCell id="0GYmkqBPqFbr-coCl5JG-2" style="edgeStyle=orthogonalEdgeStyle;rounded=0;orthogonalLoop=1;jettySize=auto;html=1;entryX=0;entryY=0.5;entryDx=0;entryDy=0;exitX=1;exitY=0.5;exitDx=0;exitDy=0;" parent="1" source="IRRYlkSZuKNls5PHsRoB-1" target="0GYmkqBPqFbr-coCl5JG-1" edge="1">
                    <mxGeometry relative="1" as="geometry">
                        <mxPoint x="610" y="504.5" as="targetPoint"/>
                        <mxPoint x="443" y="550.5" as="sourcePoint"/>
                    </mxGeometry>
                </mxCell>
                <mxCell id="IRRYlkSZuKNls5PHsRoB-1" value="" style="shape=image;imageAspect=0;aspect=fixed;verticalLabelPosition=bottom;verticalAlign=top;image=data:image/png,iVBORw0KGgoAAAANSUhEUgAAAYsAAAGICAYAAACwdMwlAAAK1GlDQ1BJQ0MgUHJvZmlsZQAASImVlwdUU+kSgP9700NCC0Q6oXekE0BK6KH3JiohCSSUGBKCiA2VxRVcCyoioCzIKkXB1aXIWhALFhbF3jfIIqKuiwUbKnuBR9jdd9575805c+c7c+eff+Y/98+ZAED2ZQmFWbAiANmCXFFUgDctITGJhhsGeKAG5IEpQLPYYiEjIiIEIDJr/y7vbgFoyl63msr17+//qyhzuGI2AFAywqkcMTsb4W5En7CFolwAUA2I32BZrnCK+xBWESEFIiyd4vQZfjvFqdOMxk/HxET5IKwFAJ7EYonSASCZIn5aHjsdyUMKRNhGwOELEM5H2IPNY3EQ7kTYMjt76RT/hrApEi8EgExCmJ76l5zpf8ufKsvPYqXLeKavacH78sXCLNby//No/rdkZ0lm9zBGlMQTBUYhVh45vzuZS4NlLEgNC59lPmc6fpp5ksDYWWaLfZJmmcPyDZatzQoLmeU0vj9TlieXGTPLXLFf9CyLlkbJ9koT+TBmmSWa21eSGSvz87hMWf4CXkz8LOfx48JmWZwZHTwX4yPziyRRsvq5ggDvuX39Zb1ni//SL58pW5vLiwmU9c6aq58rYMzlFCfIauNwff3mYmJl8cJcb9lewqwIWTw3K0DmF+dFy9bmIh/n3NoI2RlmsIIiZhnEAjtAB36IOgIbAHK5+blTTfgsFS4X8dN5uTQGctO4NKaAbW1Js7OxswVg6t7OfApvqNP3EaJemvNlPgbAxQ0A+M2cLwXpsw25d2SLOZ95DQBKfADOKLAlorwZH3rqgQFEoABUgDrQAQbI74IVUqETcANeSJVBIBzEgESwGLABD2QDEVgGVoK1oBiUgq1gJ6gENWAfaACHwBHQAY6D0+A8uAyugpvgPpCCYfAcjIF3YAKCIBxEhiiQOqQLGUEWkB1EhzwgPygEioISoRQoHRJAEmgltB4qhcqgSqgWaoR+hI5Bp6GL0AB0FxqERqHX0CcYBZNgFVgbNobnw3SYAQfDMfAiOB3OgQvgIngzXAHXwQfhdvg0fBm+CUvh5/A4CqDkUFSUHsoKRUf5oMJRSag0lAi1GlWCKkfVoVpQXahe1HWUFPUC9RGNRVPQNLQV2g0diI5Fs9E56NXoTehKdAO6HX0WfR09iB5Df8WQMVoYC4wrholJwKRjlmGKMeWY/Zg2zDnMTcww5h0Wi6ViTbDO2EBsIjYDuwK7CbsH24rtxg5gh7DjOBxOHWeBc8eF41i4XFwxbjfuIO4U7hpuGPcBL4fXxdvh/fFJeAF+Hb4c34Q/ib+GH8FPEBQJRgRXQjiBQ1hO2EKoJ3QRrhCGCRNEJaIJ0Z0YQ8wgriVWEFuI54gPiG/k5OT05VzkIuX4coVyFXKH5S7IDcp9JCmTzEk+pGSShLSZdIDUTbpLekMmk43JXuQkci55M7mRfIb8iPxBniJvLc+U58ivka+Sb5e/Jv9SgaBgpMBQWKxQoFCucFThisILRYKisaKPIktxtWKV4jHF24rjShQlW6VwpWylTUpNSheVnirjlI2V/ZQ5ykXK+5TPKA9RUBQDig+FTVlPqaecowyrYFVMVJgqGSqlKodU+lXGVJVVHVTjVPNVq1RPqEqpKKoxlUnNom6hHqHeon6apz2PMY87b+O8lnnX5r1X01TzUuOqlai1qt1U+6ROU/dTz1Tfpt6h/lADrWGuEamxTGOvxjmNF5oqmm6abM0SzSOa97RgLXOtKK0VWvu0+rTGtXW0A7SF2ru1z2i/0KHqeOlk6OzQOakzqkvR9dDl6+7QPaX7jKZKY9CyaBW0s7QxPS29QD2JXq1ev96Evol+rP46/Vb9hwZEA7pBmsEOgx6DMUNdw1DDlYbNhveMCEZ0I57RLqNeo/fGJsbxxhuMO4yfmqiZME0KTJpNHpiSTT1Nc0zrTG+YYc3oZplme8yumsPmjuY88yrzKxawhZMF32KPxYAlxtLFUmBZZ3nbimTFsMqzarYatKZah1ivs+6wfjnfcH7S/G3ze+d/tXG0ybKpt7lvq2wbZLvOtsv2tZ25Hduuyu6GPdne336Nfaf9KwcLB67DXoc7jhTHUMcNjj2OX5ycnUROLU6jzobOKc7VzrfpKvQI+ib6BReMi7fLGpfjLh9dnVxzXY+4/uFm5Zbp1uT2dIHJAu6C+gVD7vruLPdad6kHzSPF43sPqaeeJ8uzzvOxl4EXx2u/1wjDjJHBOMh46W3jLfJu837v4+qzyqfbF+Ub4Fvi2++n7BfrV+n3yF/fP92/2X8swDFgRUB3ICYwOHBb4G2mNpPNbGSOBTkHrQo6G0wKjg6uDH4cYh4iCukKhUODQreHPggzChOEdYSDcGb49vCHESYRORE/R2IjIyKrIp9E2UatjOqNpkQviW6KfhfjHbMl5n6saawktidOIS45rjHufbxvfFm8NGF+wqqEy4kaifzEziRcUlzS/qTxhX4Ldy4cTnZMLk6+tchkUf6ii4s1FmctPrFEYQlrydEUTEp8SlPKZ1Y4q441nspMrU4dY/uwd7Gfc7w4OzijXHduGXckzT2tLO1punv69vRRnievnPeC78Ov5L/KCMyoyXifGZ55IHMyKz6rNRufnZJ9TKAsyBScXaqzNH/pgNBCWCyU5rjm7MwZEwWL9osh8SJxZ64KMiD1SUwl30gG8zzyqvI+LItbdjRfKV+Q37fcfPnG5SMF/gU/rECvYK/oWam3cu3KwVWMVbWrodWpq3vWGKwpWjNcGFDYsJa4NnPtL+ts1pWte7s+fn1XkXZRYdHQNwHfNBfLF4uKb29w21DzLfpb/rf9G+037t74tYRTcqnUprS89PMm9qZL39l+V/Hd5Oa0zf1bnLbs3YrdKth6a5vntoYypbKCsqHtodvbd9B2lOx4u3PJzovlDuU1u4i7JLukFSEVnbsNd2/d/bmSV3mzyruqtVqremP1+z2cPdf2eu1tqdGuKa359D3/+zu1AbXtdcZ15fuw+/L2PamPq+/9gf5D436N/aX7vxwQHJA2RDWcbXRubGzSatrSDDdLmkcPJh+8esj3UGeLVUttK7W19DA4LDn87MeUH28dCT7Sc5R+tOUno5+q2yhtJe1Q+/L2sQ5eh7QzsXPgWNCxni63rrafrX8+cFzveNUJ1RNbThJPFp2cPFVwarxb2P3idPrpoZ4lPffPJJy5cTbybP+54HMXzvufP9PL6D11wf3C8YuuF49dol/quOx0ub3Psa/tF8df2vqd+tuvOF/pvOpytWtgwcDJa57XTl/3vX7+BvPG5ZthNwduxd66czv5tvQO587Tu1l3X93Luzdxv/AB5kHJQ8WH5Y+0HtX9avZrq9RJemLQd7DvcfTj+0Psoee/iX/7PFz0hPykfER3pPGp3dPjo/6jV58tfDb8XPh84kXx70q/V780ffnTH15/9I0ljA2/Er2afL3pjfqbA28d3vaMR4w/epf9buJ9yQf1Dw0f6R97P8V/GplY9hn3ueKL2Zeur8FfH0xmT04KWSLW9CiAQhROSwPg9QFkbkgEgHIVAOLCmbl6WqCZ/wLTBP4Tz8ze0+IEQJ0XAPGIhncjjKhpIQAKiJ0ah2K8AGxvL9N/iTjN3m4mFwmZKjEfJiffaAOA6wLgi2hycmLP5OSXeqTYuwB058zM81MSYoWMyJdtnBz9btD9CsE/ZGbW/0uP/7RgqgIH8E/7Jz3sFoCcokLKAAAAVmVYSWZNTQAqAAAACAABh2kABAAAAAEAAAAaAAAAAAADkoYABwAAABIAAABEoAIABAAAAAEAAAGLoAMABAAAAAEAAAGIAAAAAEFTQ0lJAAAAU2NyZWVuc2hvdDUu5ZUAAAHWaVRYdFhNTDpjb20uYWRvYmUueG1wAAAAAAA8eDp4bXBtZXRhIHhtbG5zOng9ImFkb2JlOm5zOm1ldGEvIiB4OnhtcHRrPSJYTVAgQ29yZSA2LjAuMCI+CiAgIDxyZGY6UkRGIHhtbG5zOnJkZj0iaHR0cDovL3d3dy53My5vcmcvMTk5OS8wMi8yMi1yZGYtc3ludGF4LW5zIyI+CiAgICAgIDxyZGY6RGVzY3JpcHRpb24gcmRmOmFib3V0PSIiCiAgICAgICAgICAgIHhtbG5zOmV4aWY9Imh0dHA6Ly9ucy5hZG9iZS5jb20vZXhpZi8xLjAvIj4KICAgICAgICAgPGV4aWY6UGl4ZWxZRGltZW5zaW9uPjM5MjwvZXhpZjpQaXhlbFlEaW1lbnNpb24+CiAgICAgICAgIDxleGlmOlBpeGVsWERpbWVuc2lvbj4zOTU8L2V4aWY6UGl4ZWxYRGltZW5zaW9uPgogICAgICAgICA8ZXhpZjpVc2VyQ29tbWVudD5TY3JlZW5zaG90PC9leGlmOlVzZXJDb21tZW50PgogICAgICA8L3JkZjpEZXNjcmlwdGlvbj4KICAgPC9yZGY6UkRGPgo8L3g6eG1wbWV0YT4KTr1xTwAAQABJREFUeAHtnQm8TsUbxx97u0qLUNm37GvIkuw7JTsVCqlsFa3atEh7FBKFSGTNUipaiGxJUaKFCP8iLbK9/+c3753jvO993/fey33vOffe33zue88yc+bM+c4588wz88xMlprXTAoEAiJZsohgJ7g9LnDGQwKu8yJZswTkuIbPquHt9pgGt9e7z1t/bkN5kQd58Ds5UX7we4j/95BFC2iU89myRuKeJaH8RjmuBbvgGFscZzXX4ThLjfqTAjhvBYNGZQIdRw6qoICDgID/cf1hGzw2XvrPCphox1aQWH8eB3mThyVAHvj+LA1+H3wfUvt9CAoK+4ZZwYFjLb1VgAQFBPb17UsQHEGBgbwICowskj144XEjSQKBY/rSIuJj5oLjx/W8Co9jus2RI5scO3zEhIMgCWZo8LrgMa7Deb3C8Xcfh/vzOJQXeZAHv5cT5Qe/h1P/HlDQ2/I4nOcJjeHYsYBky5bNiAqU/8cDWSVrVvijBpNNfyjns0v2E5pBUFCIqKBQz5w5skqt6gXlymqXSqWK+eS8c0+XM8/MqRfSkQAJkAAJZCQC//57RHbsPCBbvtsnX6z+Rd7/6AcVENpmpS4QgMBQuVDzmokqPo6rNoCTCYIiZxa5+Yaq0qVTBROY/0iABEiABDIHAWga02dskDenrZf9Bw5rU1VWFRzZ9L8KCqfpyWgUARUUVSgoMsd7wackARIggRAC2bJlkc4dK0iX68urEnFE/dBXfUyymjaq40fNiePHj0nN6pepoKgYcjEPSIAESIAEMheBTh3KS52al0sgQWCosAgCQGcGpEf1qpdmLiJ8WhIgARIggUQEsqmdbZ2rCqtcQOsTGqO06Qkui3ZgHDt2RCpXKpDoIp4gARIgARLIfARq1ypo5ALkg2oWaq5nOriPSfZsx9Xq6YzMR4RPTAIkQAIkkIjAuSoPAoGj2neh8iELBtypKRSExpGjh+Wss2gem4gYT5AACZBAJiUAYZHQDKUNUdpvgRMqNTIpDj42CZAACZBARAKmz+IomqHQXxEUEujIoCMBEiABEiABS8DKBe3ghjmU/VlvbkmABEiABEjAElBrKGgWEBZok7KWUdabWxIgARIggcxOAFNBOcICsw2qyNBJpOhIgARIgARIwBII6MSCcFkxeyxccMs+iyAN/icBEiABEggSwKyzKixs5wXUjGCTFAGRAAmQAAmQwAkCphkK853D2e0Jb+6RAAmQAAlkdgJQIiAfTGNUUKNABzf7LDL7i8HnJwESIIFQApALZm6o0NM8IgESIAESIIFwAkHNwtEojB1teBgekwAJkAAJZHICKix0YW4dwR00m2UzVCZ/H/j4JEACJBBGAMZPCX0W7KsIY8NDEiABEiCBBAJBJULHWQR37JZ8SIAESIAESMBNAPIhuzWLwhYrW9CRAAmQAAmkPYFvN2+RV8dNlH37/pesm19wQR65pfcNUqpkiWSFP9lAEBSQD2YENwZcJCgYJxsfryMBEiABEjgFAss/WZFsQYHbQKjMenfeKdwxeZda+ZAdwW0TVNZUVCwOHPjTrK6UnOTkypVLzjjj1Ffoe/31iTJ23HhzyyefGCF16tRJzu0ZhgRIIJMQQO39scdHSVrVylOCdd++fSkJnmZhrXxQYQEJYX+pd/+GjRrLjz/+mKwIu3XtKqNGjUxW2FiBfv/jD/nhhx9MkL///idWUPqRAAlkQgKovcOhVo79eDfhZBzE2meRcR6GT0ICJEACsQnUqV1DBcU+2avCAvt0ySeQoFmk/lQfL77wvBw6dMhJyZhXXpEPP/zIHA8bNlQqVazo+OW9JK+zzx0SIAESiBcBaBL3Dotvh3C80u5tvAmaRTxm/ahevVrIs82ZM9c5LlumjNStm7g/4fDhw7L6yy/ls08/EzQplSheXFq2bKHtixc417p3Fi1aJCtXfmFONW7c2O2VaP/IkSPy4UcfycaNX8vOnTulQIEC0qRxI7niiiucsJMmvSF//fWXOb7hhh5y5plnmv0/9u+XqVOmmv3zzz9fOnXq6FzDHRIgARLIDASy+8UKateu3dK8RUvZsWNHCPcnnnhS+zOelhYtmjvnjx07JrffMUBmzHjHOTfmlVelcOHCzrF7Z+evv0qvnr1lzdq17tMycuTTcuedQ2TwoIHm/KrVq504CxYsKM2bNzPnlyxeIg89/IjZ79nzJgqLEIo8IIH0Q8DPHdx+p2iWVU1NK6iTeWBYTnXo0NERFKj1N2rUUHLkyCGo1fe7tb98//1WJ+rZs+c4hfpZZ50lTZs2NVqI7dx2AibsDB48xBEU7dtfJ7fe2k/y5Mmj1lrH5amnRsqGDV+ZkO3atnUuXbxkibO/5P33nf12bds4+9whARJIXwTCO7jTV+q9Sa1VKMwI7uPosvBwQN68+fNk85YthsQtN98sX6z8XCa/+YY8+8wocw59H88886zZx79Xx4519qdPmyqTJk6QZcs+MgLG8UjYOXr0qJx99tnSrFlTubl3b3n5pRflwQfulyGDB5kQsCFesXKl2UfTGJqZ4D74YKkRJmi++vjjZebcpZdeKlWqVDH7/EcCJJD+CKBTG2az+LGDO3n5hwF5kA/GGsra0dpt8qJIvVBr16xzIrv99v5Go8CJpk2bSLZs2QTNTl+sWuWE2bLlO7OPPo2qVauafaS9onaaL1lyQguAR/bs2WXc2FdNmG3btptO9j179sgvv/xizuHfb7/9ZvYRtlWrljJx4iRjMbF+/Xr5+++/5eDBg8a/rWoVXjEyCeA/EiCBUyIQ7OAeIheqsKBLHgFb5vnCdHb9hg0m1bly5pQLL7zQeQJoBKVKlZKvv/7aNFH9999/8s8//8i///5rwuQvkN8JG2sHTViDBg+WL744IXCihUdTFIQF3GLtq/jnn+C9cMwmKFCgI4H0TYCC4uTyL0FYYFCed+7ss88yN/9PraFgA+22fkIzEhz6JjDSO2vWrOaH/obdu4MagQkQ5R8ETKfOXeTnn382WsZt/W+VylUqy/btP8r99z+Q6CpYceXPl0/QKb7k/Q+McEIgaDGlS5dOFJ4nSIAE0g8BO/8SUpwW8yqlHzJJp9SsZ4EpBL10RYsUdW6/YkWw/wAn0Lm9fft241e0aBGzRaf3xRdfZPY3b97sNBHhxHFtrgp3GzduNIIC5zt17CgY49GoYUMt+EuFBzXHULnaJHRib9q0ybl/23YnOr8jXsiTJEACvidg51+yI7h9n2BNYLs2Lc3P67SalfK87NwGgGuvbedwePSxETJz1rvyyaefSrdu3QWaQTDMtU6Yxo0amX1oF7f06Svr128wHdLjX5vghLE70Fas2/rDViOAYKY7Zswr9rQcS9Be7Ilr251Ijz3Xtk1ru8stCZBAOiVgO7XTQwd3qZLF5dlRj2vztwoL/Zl9FRxeOR1nEWyCslsvElKzZg01nb1epk9/29Tk+/btF5KM8uXLSc+bbnTO3XZbf5n+9gzTdwGrJfzg0EQV7jBSHFZM6NCG1lKq1BXGyskd7vutJ8xycb5MmSukWLGijrluxQoVpFChQu5LuE8CJJAOCaCDG4Wun/stIMgiNZEhzRAatWvX1AlTX5dvNwcNfdIiGyAfzDgL7FjzqLS4caR7vPD8c/Lwww+FdHCfc8450rt3L5k3d47pb7DXofDHOds0hfOwirKmtjYctqeffrpMnTpZKleqZE5DG8EYi9EvvyToUIf75ptvzNb9r61rzAWboNxkuE8C6ZuAXwUF+mpv1vUpnlNhFmuCQ6T/3mFDTFh3/268csXKhyw16k8MHDv2n7b3H5Ijh/+U9V/cF697JjtedHIf0uanAvmTtnbau3evMa+14yNi3eT3338303lA2CSlSY3ScR1PPvmU0VbWr1sjefNy/qpYbOlHAiSQMQlUqP6I5MiZ2x/jLMIRp0Rauk1tw+MJP4ZASUqoQKCsXbtOXn55tLkcTWQUFOEkeUwCJJBZCNiKtZrOos8i2G+RWR4+1nM2bdbCsYDKqc1Uw4beHSs4/UiABEgggxMIyofEPcIZ/LGT+3jQWJ4e+ZQzQjy51zEcCZAACWREAgmaBcZZULtABi+YP9dMj16saNEk+zUy4gvBZyIBEiCBUAJB+ZAwgjuoYAQoMMzo8ZT0mYRC5REJkAAJZCwCdr0jnXU2+GB2m7Eek09DAiRAAiRwqgQgHxLGWeiEH97O+HGqz8LrSYAESIAE4kAA6x1BPhjNAjvWPCoO92KUJEACJEAC6ZQA1juCfDCdFVZQeL1iXjplyWSTAAmQQIYlYOWCy3SW1lAZNrf5YCRAAiRwSgQSNItgHAGdqJwC45R48mISIAESyGAEgnLB2ERZAWG3GexJ+TgkQAIkQAInTUCnmdVrQzSLk46LF5IACZAACWRQArbFSa2hghoFx1lk0JzmY5EACZDAKRJwjbOw61mcYoy8nARIgARIIEMRCBtnoYoGuywyVAbzYUiABEggNQgEx1nooDxEZpuinLk/UuMOjIMESIAESCDdE3CNs4BKYX/p/rn4ACRAAiRAAqlKICgfXIPyUjV2RkYCJEACJJCBCKiwgNSAHS0dCZAACZAACYQTCMqHBM0iuLH2tOFBeUwCJEACJJA5CXA9i8yZ73xqEiABEkgxAdc4C65nkWJ6vIAESIAEMgEB1ziL4IA8az6bCZ6dj0gCJEACJJBMAhHXs6DASCY9BiMBEiCBTELAygWX6SysouhIgARIgARIIJyAM+usNZ+lwAhHxGMSIAESyNwEgvLBNc6CgiJzvxB8ehIgARKIRCBkPQsKikiIeI4ESIAESCAoH5z1LDggj68ECZAACZBAJAKQD1lhFhWc8sO9jRSc50iABEiABDIfgQTNIjj9LOeGynwvAJ+YBEiABJJDwDU3lLWjPaFhJCcChiEBEiABEsj4BBI0i+CD4iB4IuM/OJ+QBEiABEgg+QSC8sE1KC/5lzIkCZAACZBA5iKQPWgFFbSjzVyPHp+n/e/74U7EuYqd2HdOcocESIAE0hWBoHxI0CyoYKSrvGNiSYAESCDNCAS7KLLaxbgxXzkdCZAACZAACYQTMOtZBMdZcD2LcDg8JgESIAESCBIIaEuUahZBleKE+SzxkAAJkAAJkMAJApAPIZ0VFBgn4HCPBEiABEhAB1UkKBQuYcFOC74YJEACJEACkQg4mgUEBc1nIyHiORIgARLI3ASC8iErx1lk7teAT08CJEACsQmEjLNgE1RsWPQlARIggcxKICgfsmZJGGhhOzEyKw4+NwmQAAmQQGQCxhoK9rNoisKWjgRIgARIgATCCZhxFrCKUlGh5lHh3jwmARIgARIgAZjP6qA8gLBNUHZLOOmPwNGjR+Xw4cPpJuF79uyRI0eOxDW9YPL777+n+B6LFi2Sfrf2T/F1sS6IR5yx7kc/EkgtAlaRUGEBlcL+Uit6kbffniETJ05K9Pv88xVRb7J27Vp59rnnZfz41+TXX3eFhPvll19k3Pjxxv+rrzaG+MU62LFzp7z00svm993334cE/emnn+S11yaY34YNX4X4HTt2TCZMeN34LVjwXohfah989vnncnHefFKseEk5dOhQxOifHvWMCdOhY6eI/n369pMSJUvL33//7fi/O3u2uQZxR/pVrFjZhB058mmpXKWac51757nnX5By5Su6TyW5j3wqcOnlgvuHu7Xr1kmVqtWlTNnyUrRYCRn+0MPhQcxxrDgiXuA6iXxrf31HE3/JUldIpcpVpVfvm+WPP/5whYq+++NPP8vHHy+LHuAkfOIRZ1LJwLvfuHFTqXVV7aSC0p8EYhAIyofsMUKcktejj42Q3bt3J4qjR/duUrNmjUTnZ86cJbf2v02OHz9u/FBIzZn9rhQpUlg2b94srdu0cz52FG5jX31FWrRoniie8BOT35wszzz7nDm9bdt2eeaZp50g33zzrQy7515z3KRxY3njjYmO3+dagA8ddo85vvLK6tK8eTPHLx47Z5xxhvYbBWTBewvl2nZtQ26B82+9NU3y5r04Yt8Sas+LFi2WCy7II7PnzJEunTub6+vWqSML5s914urcpau0btVKOnS43pzLkSOn4xdI4O6ccO3YPHGdirj7zz//yKBBQ2TV6tWSLVu2RGH++usvvXcnw/Lee+bL5i1bpEePG+XSAgWkZ8+bTPik4kgUadgJCNVnNb8HDRoo9993r5x11lmyatUq+fHHH+W8884LC51xD5ctWy4339JHLrzwAvNeZdwn5ZOlFYEEzQK3g/RIPTdu7Ksy8523nV/58uVM5PXq1TNb1PJRo4ZDYfToo4/pRFVZZd7cOfLwww8Jmimef+EF4//CCy8aQTF8+IMyf95c02z20MOPJOsjmPXubP1gLpQyZcrIvPnz5XCEpg8U1B8vWyb//vuvuR/+zZs3X3A+rRwEQpvWrWSaCoVw9+lnn8mff/4pV199dbiXOX57xjtSuHBhIyQmT57qhDn//POlSpUqzi979hySXwtme87miXPBKe68885MUygvfG++ycvw6BYuXCSHlPETj48weVL7qqukd6+e8oYKdOuSisOGi7SdM2euPPXUSNUGx8lgFRblypVVLoWkY8cOMnTo3SGX7Pz1V1m8ZIl88MHSqNpcyAV6AE10/vwFMuvdd2XLd98Zb7y7yJ99+/aFBEdFKZYWjbigZYW7VatWCzQCt0NaUQn48ssv5b///nN7RdzHO37X3UPlnmFDpXNCxSFiQJ4kgWQTSBjBHRyYh6tST2BUr15NateubX6FixSRr7/eJPnyXSJNmjQ2yWvZsrW0bXutOQ/NAR9E+XLlBNfd0KO7ZM+eXWvLi0zYD5YuNYUPzlerVlUqVqxgPtxvv/3W+Ef7h2Yt1Civuaa+NGncSA4cOCBLtXAIdzVqXGkKjGUqMOBQAKCGj5p5Wjk0P6FQ++TTTw0L933fmvqWtG3T2n0qZH/K5CnSqmULadOmjaxZs8YpyEICpcFBt25dZe5cbfq6+GI5GkEor1z5hZSvUF5OO+00JzW1atUU5KNtIkoqDufCCDuLFy827w+0xFju9dcnSo0atWSUaiEPaTNY8RKlTJNjrGsefHC4VKteQwYPuVOGD39YWrZsZSoe6Hdp1+46+eyzYMXHxrHk/Q+kY6eghmfPubcQkLfffof7lNnv2au3zNYKDtwf+/dLg4aNpEGDRqY5t2u3HqZpLVwwmcCufzlz5JDlyz5Sra17xHxwBeUuCSSDQFAumElnUauNp0MbMvoAevTo4TRPtGjeXD/YK6WA1nT37Nlrbp/3krxmi8IEteL9+w+YGjW2uc85x6np58+X34TbtStxM5f7OWbOetccNm7USIVUE7M/c9YsdxCzX61aNcmVK5cs1KYcOBRqe/fu1Q+1gTlOi38QUOXKlzc1YfT3WAeNYr72mXTq3EkOR6hVQjhAS0PTUrFiRaVSxYoydcoJ7cLGk9T2H63xo48h/Ldp06akLnX8YSCRM2dOc3w8wju173//kzx5LnDCY+eCC4LH0CThkorDBIryb+269VK1atUovidOt2rVUjZsWCdLFi+STz5ZJv369pEJr79+IkDYHrTMMa+8KiNHPiVf6XX4rfriC0GhHE+3YMEC2b79R/ly9RcqQGbJ5m836bv5ucMs1r3xPsNFyodY19GPBMIJWPmQHd+0tYKyvd7hgU/lGDVm9BugEOnWtYsT1ahRI5192/xj0wEP+yH+TwsY41yJy5Ez+JGiDTyag3BCs0Quve/VV9czgiZ/vnyyePESwXVoy7Yuu7av16lTW5Ysed9oFWiuOvPMM6VO7atskDTbduzQQaaoJjFwQLDWOUsFXsGCBaVihQoR0zBZBQP6gC699FLjD6HxpDbF3Kvt9ZZhxAvDTkIoPfroiLCzIgcP/ql5Fyx4Enmm8MRfBw+q1nFRyFW2qe+PP/aHnE/pAWr427dvl0sSKhyxrs+TJ0+Id4MG15h+LWi3eEfC3bTp000zX3fVnKw799zcdjduW1SKDiozVB666reTQ4VTpPTFLQGMmASUgC2XVbNQFUN/2AYCQXUjNQmhPR3qNGpzthYZHj86ZuHcmsJBLdCRJhSCEDRoprDttQcPBoXE+XnOD4/KOf70089Mv8dRFRqwhoFVzB7VFhBHuHUTJGdjbbqAYPrii1XGv6FqFbZ25kSaBjvt27c3TWxIB9zUt96STp06RrwzLJ9mz55jNLD+t90u+H300cfGXHRxgpYU8cIIJ/Nq09GaL1cl+vXr1y9C6JM7lVsL2L//OdEvhFjQoQ2XO/c5Znuy/1CQnnvuufLbb0ENJVY8sKa7TZuArq7fwLwXsJyCi6S54TyaMmvVrIndNHWo5Dz66CNG+OMdfl6NPiDU6UggbQkE5YN2cKusSLgz5EZqu/HjxpsoeyVYu0SKv4j2aaCP4ueffzY1e5jJon+hYMGC5nyxYsXMZT9qpyAKdjSNQJAUKVwkUnTmHDoh4YoVLSolShQ3v1KlSppztnnKHCT8a9yooYnzEe1oR+dkyxYt3N5pto+acd26dQS1WbTlb9r0jbS/7tqI90enJ1yVypXkdG26ww819+LFi8nkKVMiXuPlyYsuuihRR/DevcGO4fDa/smks3ChQrJh/YaYl37zzTfSQvsboHk++ujDRjjOnHmi2S/SxTAMiKXFRrrGbcIcyT/aufDrbu7dS9at/VL6979VXtPm3GsaNDKVmmjX8zwJpDYBKxeM6SxGcMfDffLJJ8Y8ElY3lSpVCrlF8xatZOvWrfLRh0tNx3dj7YBGjf+WPn1lxy87TNjrr29vtl20vf6ee++TO24fIJddfpkRKrCkQYd5JOfWHqZNe8sJh+YujEVAutAn4XbolEV7PyxOTj/9dO1UvMYILHeYtNpHR/fgwXdKNrUOa9CgQVSNDJZPbbVTG23pboc29t4332I6yv3UbIE8Q2c88gGM4dAxjMoCBMmpus5dOiu3IcbKLpomAOsnVDSeevIJpynyww8/inlr9AXB4imSg0YDzRfWTW4Ho41YDs2gGEsEyyXbXAgrqEhCCaxuubm3sZarouNhkN727a+LFT39SCAVCQTlg9Es4mENhZSOHRvUKnredFOihKNDE+2xdhDaM8+M0j6C2sZk9WvVHFBg3n5bf3PdTTfdaOzwv9Ga9ty580wn5ujRLyWK055AgQB1vWzZMo6ggB8+Olg4oVZpa+X2GmwbJ1hqQVDYwsztn1b7zZo2NYYAsJjp3DlyExRMN9G5Hckfz4ExBRib4SfXULW389RwAWad0N4wFgCD7zpHaWZLadoRT2WtlHTq1EVGjx5jNFAUwB9/vEysNgljBggrmKhiC8E6Q5tKY7m+fW4xlQuMA4JmAoMCyxbm3mWuuEJg8rtetRo0pZoxQtpfFsuVK1vWCIYxmk400y5d+qHcqqPGEZ91ML1FvBAqqAChafI/HaWfL3/ifhV7DbckkPoEgk1ORrMINkSlfhvUm29Oiprujz78wLRX2xrledre/I6Oy4AankNrara2hQjwAT0+4jF5+KHh5qNxd05HugEG0O35bVckLwlPkzvcgDtuF/ysy5s3b9R4bJh4bNFXAlPZ93RcwjX160e8BWroaG7CmIlwB3bXa81zqnaUDxo4IKQACg+blsdIF/K4V8/eZlQ4Orc7q9aIJpbUcBgIOEdNd5944kl5dexYZ3Q4zjdt2sQMdsQAy25du5oBa3jXMA7j9QnjtWmqddQkVK5cWTBu6IEHHzSCBU2maNK0fUlPPz1Snh41SgeOtjVTrlSpUlmee+4ZNY0dEDVOmHPfffdd8vaMGfLYiMe1zya3DNXj7NkSPkm98k81LnhRZx+4/Y5gHpYuXUpNfYd70n8S9UHokQkIQDZov0XdZrMDx44ekWNH/1Gb7AOyavltmeDh4/eI/30/3Ik8V7ET+85J7hgCMFg4++yzTZ9UvJDA5Pqvv/+SPKrNhGuKaP6BsEAlJSUORhCwlHOPFbHXQ1OBCTT8U+IwbgJ9Nmgei+SgfWPer3POOTUjgEhx8xwJJEWgWp0XJXuO3JIdL2jA9FlEflGTioj+JHAyBNJi6g2Yt0YzcYWWkzOFggLPGasjPlwgJZdLNCtBez0EUyThZP25JYF4EgiOs9AR3GacRYI9VJSKTTzTwbhJgARIgAR8TMBqvGYEN9IJQQHBQUcCJEACJEACbgKQD8b0ImFlVSMw3AG4TwIkQAIkkLkJ2BYnFRa2rwJbu5+54fDpSYAESIAE3AQSzTrr9uQ+CZAACZAACQSVCJdmQSQkQAIkQAIkEJlAcASQbZRKxWYoTEmAWUDD3VU6k2uJ4sXDT5t1HL7b8p1zHpPCXXttO+cYI2exRsA5apsfa1JC54KEna+/3iQbvtrgrB5n/THdB0aDFy9RXDANRbhbvny5fP/9Vl1zo42ZLj3cn8ckQAIkkDkIBDULHWcBK6jUN4P6YdsPsnbNuhCW7y1cKC88/1xEYYEFaX7d+asUKlTIXIMJ8aywwDQHXbt1ly4698+WzVt0iojX5L0F85K1TCZWTvvwo4+MQLjsssuc9GCywgeHP2TmJMJsq9Y8DAEwsAqjZjHJHaaHwNoa6dnheTDFCeYxoksZgaNHj5p3wy4Ti8FxmAuKjgQyCwErH+K2nkXvXr1E9M86aAZLddLARjo/EBwKa3x0mMAPDiNj++oiNK11adFw98KLL0ofnZ8HS2XCYQWyadPfFszZE8v99ttv8vmKFdJJ55nC1BfhS2sW1RlpMT8VJolzaxeYSyh//gI6tcjhWNGnmh+mzF6t61bXrVtXihZNPJPudH1WzAnkXk8hJTfHegiTJr0hCxcuSMllaRYWKxpiPq+77rozVe8Jrrt27xIsfuV20DZ37PjFWRDL7Re+P3DQYFOhwHreeGcr60R+v/z8Y5LT10M4Y14nrOxoK0A2bkwjj/zGBIrQkq0Qx6j2ebpsK2ZfxpTx7XQt9vReUbHPzG36JWAr0sH1LLT5yYzkTn0FwyE0Vqcq79ypkzPtQrfuN8iAgYMc/9//93vUmUeXL/9E6te/2gnbUGdi/VAnXkvKoZCtV6+uztDZ3kz5jQ/Y7TA5W0ddLGjatOnu02YNCUzQh+kb0sJhOVdoOc8+91yi223d+oNZyhPLfybXYc3y8Fl1k3ttWoQLTx80nyNag09tB67QWMMdlq4dN+618NOpdvz777/ryoWdZJDOgLtx49ch8Y4e84qZGRe1tQmaNsyyDId3sb6ur4HmT8x9hgrMVbXr+jofQx6MBxmaAOSDGWdhuyzsNrWfGlrDu7qu8A039HCiHjJ4kPS55YRmgCU3Rzz+uJmMDULETvGMmj8+pAsvvNC5FpMPQmuI5fAxYsU5rByH2h1We4PG4HaIF/6YGt1ODY3aHT7Y1q1aCVZfSytX/+qr5T1d99umw973rWnTIk4miAJ2x44dZsZSGxZbLCaEAgmzn+JZHAGZkLnIi2gL6GCuJAin8OfGHEvgiSaYbdu2n4hT74fV5SIJ1ZSkr5yuvX5bhMkEMdsq+o3c6UE60BeGvEtNZ58N21NxeO42urZ8ratqSXldJtft8BzPaYVg9OiXzSSCM96eZqZohwaEySOXL/9Yxo8bayaznPj6BDO5IDQuOhLwkoCVC0ZYaK9FXNOCqbZr1aopBQsWdO7TokVzs8iPPTHhtfHmA0LzFQrMZs1bGnXcTmGO5VGty5krp04Q97c9jLhdsWKlmSgOhTAc1saItCAQ+jEqVCivs5UGp5SeoU0HWDUvqZltI970FE5edNGFWriUM53uNhoU9GhCat0mtGluy5YtUrlyVe3H6aGa09XSqnUbIyRQGHXo2MmslIcaa+s27QxDxHdc4+qm4bE6XNWq1XVN7y5mLQV7rxEjnpCSutYH+obKlClnBKb1q39NA3letZUyZctpQdhOSl9R1hgkNG3WQlrqbK3lyleURx8bYYNLStOHpWNRE7cOFYWrateRGjVrmcpDl67djdcbb7wp1arXMDPGlilbXu677wF7ySlt0VxUoWJl6dO3r5SvUMlMoX6yEWKG5Fm6mBKWxT2qE3S63caNG1XwHTWVF5zHrLv4LpZ+GNSSMbGidRBaqCi5K0nWj1sS8IJA0BoqqGDo/bOkehpQgKEp4NlnRsWMu0aNKx3/JroeA5aRxBTdWGEPKhAEiP1w/tJlVc8//zwnfKQdCAbM5lmwYGHjbReux7nwiduC615PNRZT6NsY8dijkaKM6zn0Sdh0YNpuOBQihQoVlEsLFMCh49DWvWjRe6a/BzXZJk2byaLFi6Vd27Yy4+3pukBUIXl7+lvOutwwEFi3fr2MGvW09l28bmrlEBpopkGT3pL335c3J0/WdvQvBNOyQ7g/NfJpXZe8jnPP99USbeWKz83Spb1636zGB+0FAh5CH/1RTZo2N31KmEzvZNJnbwTNoW+//lK9WnWZP2+emQgQGg/eo0cfe0zmzpmtQq2kFsRH9Z2IXWFAnOhneHXsOBu92a7UioTbYbpwTGuPtEMbK1eughb2A5K1nrc7Hrtv3y/kjdthWV9MROhesyJcS0Z/BpZxhZaJ/jukjY4EvCUQlAsJmgWSkvqCArHO1cVl8BG6+xxwPpbDegHFixUzTR/YL1SokGCxH+s2a80a56K5Awf+lPnaUfjee/Nlw4Z15rfxq/WCBWdQUw93LVu2kK+/3iTvzp5tauhuwRUeNp7HNh3W5HjKlLdMP0/4PcEEBRI6QrEAUr58+cxiPuHh3Mdo5uig2hUKKuRHHTVhXvbxchPELCil62L89NPPZoEdrK735ZdrTBOTjaORrkmOzlZcjwWkMGssCli40qVLm+mz161bb45PJn3mQv2HZ8Kyub163eTMGIspv9EJfPnll8tDDz+i+fmVmdo82oyyNi5sIWhgku3+odB2OzwLKiRY1GiLhs17ySVmxUR3mNTYh5acS7Vit4PGjDRat37DBlmxcqUcPXbUdHJbzdr6c0sC3hDIIgmaRfxuP05rdTfeeIP5GN13eVMX7zlXF3xBAYk28Z07d8gVuuIYHFYIW63Lmz7yyEPm+DodbzFeOyTr168vf2jn4QwsGPNo9Nr/rFmztCmljFkm1USQ8K9rty4yRtvz+/ULdipaPxRGSMegQUPkNl2dDwWHFw7pQE0dHfO9evWUFVqTH6MrAqLwdDus7Pb440/IxaoFlC1zhem7sFZl7nDufSzW4zb5xJTXhxLa/Xdr/8bu33abvg57DZri/vj9D7HLspa+orT1MvFAe3BzgjBC7R/uZNJnI9+9+zcjGIpHGIsz850ZxmwaTW0lS5aQJ594XNdWL2EvjbiFFjJq1MgQvzGvvCofqKYEB03mwQeHyyztU4PQK1asqCm8cT61HbSK8D6pg9CSVVhZh+YrOGgl7dt3MM2h+H7oSMBrAsH1LMyHkfoFJGq932r78/SOiZcGnTRpklyS9xJTSB869K901XZp9EOgVpozZw559tlRuhpZKcPndl297tvN/fRjLmM+7h49uju12kgA0QQV6QNr07q1aeeG2aK1m7fXowkIWgc6vL10WE62/623mYWBmjVrZtq13elBZ/IdAwbKyy+/aNbfhl+PHje6g5j98MIuW9ZsicLYE1imE9rGpIkT7KlE21jXuwOfbPpsHHnzXmyEzrffblaBH6w8WD8s/gPzaZhMo4Dv2au3fPpJUDuyYVK6haXdBG0mXbnycymQP79p3po5c1ZKo0lW+CKFi8iePXtN5chqRdCSsaphuIMGV6lyJWMVFeldDg/PYxKIF4FgWaKaBeRElixZE+6TugIDy1H+9OO2iM+AtnUIBji0k69bt8aMtciqS2CGr16GhWpeGz/O1PhQO7Z26REj1pNLP3g/ohdq7tu3bXX81q5Z7ezXrFlDdu/a6RxjZ+eOn0OO0+KgZo0akk25PD3qGZn21tREt0QhctZZZzr9N2aMwtKlKmy7mLDQGAoWLGjWg3YPQkwUketEey2sOnfqov0gi6SB9mEgX9APgZp2St2ppg9pRkf/yy+P1iVEH5Rztdb9szaPXXb5ZbJB+10qVKhgBOiVysndNJnSdNrwZ599ltGUMDMA+kEmTpxkDASsf2pu8+W7RLCs61hd8vXOO4eYMUDo9IaQxpr0sP6CsQUc+lpmz54jvXv3Ss0kMC4SSDEBKx/MCO4UX50KF0RaKS3WKmS4JQr7jO7QtIOxHzPVQqh69WqJHhfNPUOGDJFbbumrhXo2045/z7Ch8rMWLtb1v7WfDB12j1nbeeyrr9jTUbcYkPiYdurfMWCQam7H9SdSVJuZFi5cEPWaaB6nmj48/ytjxui63LcZi6/sWlHAoLpnnnla7rn3PiM4zlYNAx3DDw1/IFoykn2+UqVKOjivsVStdqURks10re7rrrs22denNOCLL75grNIw7ghCefTLLxnBv23bdul98y3GKANWUejH6KYVgJ43JdYaU3pPhieB1CCQpX7LBYFjx47I0cNYg3u/rPw4tD0/NW6SmeJIqzW4YVaLMRVuc0s3Z9SSYXoZSSi7w4Xvw1oM2smpmg6nRvrQvg8tEgLIOqydfUQtx1K74gCWwSbQ0A5oe9/U3sIII3fuxGtq4/zhw/8ZAwZ3n1Bq35/xkUByCVxZb4yuwX0uOrhTt+kpuQlguFMjgD6XaIICMaPgS6mgwHXW7BP7p+JSI32RBJZZO1sFSGo7jHlISxdJUOD+0c6nZdp4LxKIRMB2VkTy4zkSIAESIAESMARUWAQ1iwA1DL4SJEACJEACEQhAPoRpFmySisCJp0iABEggExMIygWddRYDkzIxBz46CZAACZBADAJBAZE1OM4iRjh6kQAJkAAJZGICjmbh7Ojcs8H9TEyFj04CJEACJOAiYPortAkqrM/CFYK7JEACJEACJJBAgMKCrwIJkAAJkEBUAlkS1jtKEBa2+cluo15HDxIgARIggUxEIJDQAOVoFuyvyES5z0clARIggRQQgHzI/vpLpQULrBw4cMCsEpaC6xmUBEiABEgggxN49N5CZuogR7PI4M/LxyMBEiABEjgFAsEFJU4hAl4aSiBXseGhJ3hEAiRAAhmAADWLDJCJfAQSIAESiDcBCot4E2b8JEACJJABCFBYZIBM5COQAAmQQLwJUFjEmzDjJwESIIEMQIDCIgNkIh+BBEiABOJNgMIi3oQZPwmQAAlkAAIUFhkgE/kIJEACJBBvAhQW8SbM+EmABEggAxDw9aC8efMXZQDEfAQSIAESSBmBli2apOyCNAjta2HhR2BpkCe8BQmQAAn4jgCboXyXJUwQCZAACfiPAIWF//KEKSIBEiAB3xGgsPBdljBBJEACJOA/AhQW/ssTpogESIAEfEeAwsJ3WcIEkQAJkID/CFBY+C9PmCISIAES8B0BCgvfZQkTRAIkQAL+I0Bh4b88YYpIgARIwHcEfD0oz3e0kpOg+SNOhGpxz4l97pEACZBAOiZAzSIdZx6TTgIkQAJpRYDCIq1I8z4kQAIkkI4JUFik48xj0kmABEggrQhQWKQVad6HBEiABNIxAQqLdJx5TDoJkAAJpBUBCou0Is37kAAJkEA6JkBhkY4zj0knARIggbQiQGGRVqR5HxIgARJIxwQoLNJx5jHpJEACJJBWBCgs0oo070MCJEAC6ZgAhUU6zjwmnQRIgATSigCFRVqR5n1IgARIIB0ToLBIx5nHpJMACZBAWhGgsEgr0im8z549e5K84tdfd8nff/+dZDgvAhw6dEh27NwpR48ejXr7w0eOyL59+6L6wwMcjmi4U3G///77KcdxKvdPr9fu3bs3xUnfvn27/Pjjjym+Lj1ecPMtfWTp0g9jJn3//gOydu3amGHSi2fcpih/++0Z8s8//yTiULx4calZs0ai87/88ossXrxEdu3eLXnOP18aN24sRYoUdsLBf9HixfLXX3/LNfXrS7lyZR2/WDsosGa/O9sEadS4kRQvVswJ/tNPP8kHHyw1x1WqVJHy5cs5fseOHZNJk96QQCAgefPmlebNmzl+8dr5+ONl8ubkybJixUpTiJ537rlSoWIFuXPIYEH64H777TcZOuweWb78Ezl48KBkyZJFLr/8chk0cIB07NghJGlt210rn3++QoYNGyoD7rg9xA8HyJ+y5Soo079kwfy5zj3sdQhz+umnS/78+aRRo0Zy+2395bzzzsPpqA4FzIMPDpd58+bLf4cPS66cOaVv375yzz1DnWuOHz8ud955t7w9Y4b8999/UqxYUZkw4TUpoe+GdWvXrZObb+4jP//8s0nDjTfeIMMffMB6J7ndtm27vPTSy/L5ihWybds2yZUrl74z5aRrl87SqVPHJK/3UwDw+nXXLimQP3/ck7Vr12558aWXZMmS9w37c8/NLeXLlZehQ++SypUrJ3n/e++7X7JlzSZvvjkpybB+CXBx3nwRk/LFys+lYMGCxm/Hjh1SoECBkHAQFDVrJC7L3IGmTJkizzz7nGz9fov5Vt1+6W5fP8bAd999F1i9enVgyZIlWjamjtNCKHDhRXkT/YYMuTPRDbTQDuTLf2lI2LyX5A+8//4HJuy3334bKF6ilON/Sb4CAS2MEsUT6cTjjz/hXDdw4OCQIO+9t9Dx69atR4jf8uXLHb+WrVqH+MU8mPdYIGB/MQOGeqqgCOQvcFmgb99+AS3gAyocAwsWvBe4//4HAlozNoGRV8WLlwzUrlMvsOT99wM7d/4a+OabbwL6Mhp+COt2rdu0DZQrXyFwZY1a7tPO/ltvTTP+yCfkv3W4rmvX7oGvv/46oAI6oIV/oFjxEgFw0ILLBou4nT17TqBV6zaBlSu/CPz555+BmbNmBS66+JLAnDlznfCjnnk2UKRo8cBnn30eUOEX6Hdr/wDeFxUuJowKwUDRYiUCdwwYGFDNIrD8k08ChQoXDYwf/5oTR6wdrSAEKlasHGjYqLHhBJaIY+TIpwNffLEq1qW+9Fu1alWgabMWaZI25HGlylUD+Dbwvi1cuDDw8COPBnbv3p2s+3/33feB77/fmqywfgmE93/EiMfNN4DvwP5UOzZJ1ApNoGChIs77adNduEixwOuvT7SHEbf4dvEtpGcHuQAmqD3ERVgAEApc+2vQsJEpfOfPX2C4bVEB9elnnzkM33hzsjnetWtXQGvOJuxNPXsZfxSgyNCXR48xHzsES5Wq1ZMsuHBx1WpXBkpfUTZwdf0GpgCyBRL8rLC4vGDhwKWXFQxoTRunjbvzzrsCOI/7xltYQFjiXuGFvU2L3d5yS99A+QoVQ9Jp/aZMmRqAgIVgtQ6F/r333h/QmlPEQhLP9cADD5pnDBcWt/a/zUZjtihowWLr1h9CzifnAHl/191DnaDIkyeffMo51qY0Iyjtu6FaaaCACs5///3XCYOPuU7dq53jWDtXXVUn0KRJs0Qfd6RrtNkkMHfuPCMUIZjcTjUu50NHuFnvvhtYs2ZN4HCCUFMtygh0CNVwByEOYY5n+OTTTwPvzp4dQBxu9/sffxg/G5/127xlS2DTpk3mEO9k3363BvBMiAc/93uKNKNAR8UiPP24v30ftGkoAK6/7Nhhb5Noi3TgXXnl1bGJ/MJP/O9//wtozTowffrb5t3S5kYTBM+9efPmkODIXwhrVBzCBYmbMdKGSkX49TYyVFQ2bPgq8M47MwN4V1DRcLtYLNzhwvfxXk+d+lb4aXOMe6KSgjAfffSx4Y8yCg7CYuLESYEDBw4YFqiIaIuE8bP/kAeRKijID1R4wQT5bR3uB4Z418AhPD4bLi23cRcW7odBTQ8FGQo6+1JZTWHjxsQfGmqnyJwHhz9kokGtFi8xXjq45i1aGn/7QZmTEf7hw0Y8t91+hymcsA8BYZ0VFh07dTbh8NHBIYMgYLp3v8Gcj7ew0KYnU3PR9k2btERbFBCooUNgRnLarh8oU7Z8iMCBsBj59KjA9R06BsK1qh9+2BaAhvbll1+aZ0xKWOBDAT93uEjpiHSuRs1agUcfG2G88KEhnmXLloUERZ6ikgA3aNAQk8fuAAiP66yW5fZz72uTkwmHSkpSDhoTmOK9hKZz2eWFQgqNr77aaN6755573mhuKLCRhi5du5nCCgIN51B5qVnrqoAtRHBfaKqo5KCSckWZcoFaV9U238CYV151koXCFvFB6LgdKgV4J+GG3XNvoGSpK0xlApoSfqjgwaFgRSUDWhQ0M9R+ITSsw73atG0XeHXsOPMclatUC6mg2XDubaNGTQKDBw9xn0q0jwIOmh404epX1jQMtdnQhMNz9+p9s3MNhBUqdghfu3ZdE9a+CwhkGb/88mjzPqJCAJ54Z9yCBYK1/fUdDS88LwrqTp27OPdJioUTMMIO8iCasID2jfQjzDUNGhr+tlUDaUAlCGUZKkDQhlFuWH/cCnlQqnSZkLuigob3Dtch31C+oRK7Zu1aExb3w/eA9xH39NpZYRG3Pgt3e9yECa+LFsDSo0cPyZYtm/Fq0by5bP1ha0g74NOjnhGtZcuiRYulaZMmMnDAANHajqCTCO33Z5xxhrk2fz603a4WtK+WLl3afauQ/Zmz3jXHjbW9/dJLLxXEry+6NG3aJCRctWrV5NNPP5OFet8mel/VigRt7w0aNtBzi0LCxuNg3dr1pr0+d+5zokYPLvrSSJkrIj9v9uzZTX/MNu1gdLvD/x02fRlDhtwljz32iGn/h/9b06ZJvXp15XztH0qOQ18K+h9KlSqVnOBOmHXr18vWrT9Is2ZNzTmtkZptnjx5nDDYueCCC0xnNvb3aZg8eS7AruPgD6e1x5j9JmvXrTfhbB+POYjwTz9oGT3mFRkzZrS0btXS9J28+OJLMnjInabvBv0ocFrTM+/Gl6tXySWX5DV9MT179ZY1a9Zqu/4iw0ObaEQ/cJk8ZaoMGTzIuds7M2fJs8+Okg7XXy/IH7x/Dz30sDRu1FAKFSrkhIu1M+KxR42RwNdfb5L3FsxzgmqtWrQSZPqq+ve/1bwbD2hf0YCBA7VPsKagrwFu7dp1cujQf7Lp66+UaShzJzLXTvce3UQrFqKFs/S/tZ9UqlTJ5Suy89df5Y47Bkon7R+7884hcuGFF8qBA39KpHcX72v/226X0vrOjB79kpx55pmihbr0vvkWubpePafvEozRH/nZp8sNlz/275caNWrJK6+8Ik8/PdLc/8knnxIVPDJ92lvmvUXcWnk0fsllEfIgYQfohD7t9NOcs0hro4YNzbeDfjuk+b33FkjOHDmcMNjB87wxaaJUr15NYLDRvXsPeWzE49KiRfOQcPYA750KEPNcHa5vb/rSUL4h3vHjxkvJkiVk1sx3THAYdsA4wy8u7tZQsIqZ/OZkyakFTbeuXZznHjVqpMyZ/a7zUsNDa/ZGUEBAoHBAwfLvv4eC12hHrnU5cgYzDB2z0RyEEzISBdzVV9czHeL58+Uznejh12VXAVanTm3TqYcXd978+ebFrlP7qmjRp+r5Ld9tkbxaEMVyu3f/ZrzxcUZzYKa12xDvgASkWdOmpnNNa53GD2y0+UA/+OgdvaoCywsvvCjaXi3o8F64cJE89dSThkvIDWIcqDYkd9w+QK7Xj6JihQom5MGDwTyzgt9ejuP9f+w3h39px/2ZZ5xuvczWhv8jIUyIp+vguy1bzDuFDzyWg7AsWrSIXNuurSnIUTjcph34MBiYNn16yKW9b+5lBAVONtKCHu9yndq1HcEJA4gqVSqbio77QhTYYAxBAde5UydTaQLLU3Wz1GgDFa/evXuZLe6B+FHwrFPjAOu0GUyee+6ZZAkKXNOlc2eZPPkNQYduk6bNpd2118mqVattdPrNzjGCddCggUZQwCOSoMB5bTUQ1RykT59bnPcGhSiMJD786CMEcVzfPn0cAYqKYX39Zt0Vn2nTppvCG98y8ihr1qxy9tlnm+uTy8K5WYSdBe8tlCeeeMr5jX11XIRQiU9dd+21RlDABwU+ng8VO5QjkRzercKFC0v3bl2NoEAYK9jzqQHDJq0UaPO8uTSHxnfxxRdHisaTc3HXLN6e8Y6gpnDdddcaARDrKZd+8L7xXqS1+e49blQLkF/lralTzMf5h9Z0YDkDqxZb4JyfJ3qtGJoCaqH4oLTDzsSrHafGhBKFZocO1ztJQS0F1lfaoS7avijwb6haBe6VFu6iiy4yWlKse6FWC7dnz16nkAoPv3ffXsl3SWLLDjxH2zatBR8c8gEfKlg2btJYdmqhEMnhPp99/rmcf975Ul01r2dGPe18zJHCh5+Dyaw2R0jOXDnlqSefcLzthwFB4nY4PidBs8qthezf//zr9nYs66IVTDYwWKKma98Vez58q23GUktr4G4HgVFRrc+0Kct9WlDJsA4s8atatYo9Zba5c58rRw4fCTkH7QaFmnX58l1iLNe0bd6eOuntdk0jBEG58hWdOPAew2mzr3PurLPOCrEAdDxi7KBGjR807CefekquVYExU2u71apVFXBDYQcBmZTbtj3IsWu37iGWQNAIdu44kUbEA83f7c5Tjfenn38xp6Dl4/2oWSs0v2z45LKw4SNt77/v3pOykrv0stB043vBu48KmTvv7T3BL/y9s36wetyv5VzHjp0FVqO39usrrVu3ciobNpxX27gLC6hWcL163hT1GfGSo7ZgXfUrrzS7tkZTTM1dtX9CflSJDdNX7CN8kcJF7CWJttpBZM4VK1pUzjs/aO6JlxQ1HTRPuYUFAqJp4E6N85FHHxM0K7Rs0SJRnPE6gSYJmMLig7A16PB7Xa7msXj58Ox169YJ9zYvqFqimJpyIk89AbPa5i1amYJE22eN0AhXqd3XQdN66cUX3KeSvY/8VEsm0/wEk1z3M6Ewh9u3L9gcZSPdu3efNleUNIcIg1qp28EfLqmmFLDE/bUj1BRu7jjc+2h+QyUm3B3Qmvlll10WcjqHahLhDtpFUu7o0WMhQZCuAwf2J1kJsc0rIReHHeTMmcuwmD9vTsi3g2BuRqeddloi/7Cooh5eeWV1mfH2dKlb72pT0YCwyK613eSkD5Hm0jTCTZw4QS4LEwYQzG6HSkU0h3vC/R2lJSG5LKLFfyrn0XKREpc9ew5jqh7pGlRC0Ow2ePBgbbYbIwMHDRY1jNCWmTciBU/zcyeqPXG49SeffCLa02/GL4S3faLgKlGytGBgGcZkXN+hkzZzjDTtutdd196kBm3qcF06dzJbNGnc0qevsf++qlYtQU0tkkOt0ja5TNM2TjR34Tdv7hzBx4N0obbidlD3KlWsKNrha9r1GzS4xu0d1/2OHTqYD/Dll0dHvQ/SDa3g1bFjnVq2OzDUW7Rvdu3a1X3a2YeNfJEihc1LCBv6znEca/DAA8O1nf9TmfnO205ThU0ICmn0e6zQ8Q/WQUhu2LBBaiSMv6l91VXylR6j5mydmtlq+ouIFTb2fPj2Km06RGGPNm7U7qK5CuUrmL4IFODWQRNVK72Q8R7W72S232nzors54ptvvjHNRKiZw6HWD4dmC+uQHnwzbodC9/Dh/9ynpGSpEkZzRrMTKhLun4035IKTPEDzVo4cOeXQf4dMDKh8oY/gu++/TzLGEiVKmDAbtYLmTh/20WSaXIdmKQhAtQSLeEm8WeRKEGSHtVw5VVesWFGnmSlaXGhFeOSRh2TM6JdN0zj6ifzg4iosxo4NahU9b7op0bPiw0SzEPo08umgL3xY6ACEwEANGTVh27l10003Sk/VTL7RDi41c9QmgKqmwyxRpAknMNBObfylbNkyIQIF7dh169QxhcjsOXMSXY5mGTgIiqTavBNdfAon8ALdcsvNopZL2ml4l6jFkdFu0CSmJsWGEaK/Z9gwbUY7atqS8YzQgNDph0E/d901VPqp2oq4ojkIJTUD1MK6pFxxxRXRgp3SeQyEGzd+vHa8Dm46OHgAAB+OSURBVJRfftlhBgV+rgMD8UOHHVyP7t00zGvm44eRwhB9ZhRwTbQpEK6hanlohlBLE/OMy5YtN3EmR8BBW3rk4YdkxcqVpr3944+XmQoJNJWZ2uG8desP5h7oyIUwefa55817iP4x9M+gYOreo7sJc6r/8GzohIY2iPifGjnKtE+3a9vGRF2seDGjZaipqukj+PrrTTJo8BCz7773VbVraRzfyPr1G0yawbH9ddeZppuhQ4eZbwICF81PeF9iCUl3vOH7atpr+qlglICR9bifWi4JhJzVtG1zMjrB1ZrLNJ+i0zZSgVa4cCFt/mxjKjh4J1CZAQe1QtSmvu3ht4953Ff7PVDJeeKJJ8290CGNTnG41GABgY043T/0ncJdeWUN0xSEfi4If5RZJ+vwHKioqmm64QqhqxZXJjo1CRYdP2XKLmi9X65ZYyq3GKTsCxevcRZaQ4rpVFAkspPGIC4VIlHHT8AOHNf52tkBedim0MFmHQPoYCYMUz38qlWvYQa32aj0RQuoZYYxt4M/TJJhtqmWNzaIs4XprNtMUTu/TXjYjVtnTU3dJrG4LnychQ2f1FY7RZ2022ewWy0onMsfevgRY+oJP6RfC3PHDzsYhwNTS/jDPBQmpPqhhoSJdQBTTgxkK3Dp5U56YIKqQsu5TEfKBxo3bmpMNmHKiPEg7jET2mRprkVa3A4mk5MmveE+FdA+tgBMXq3rpiakffr0C6g1kDExxXPAvBKmym6HMR4tWrYy+QJTXAxExEBSazqLsFo4BXrccKMZewJz53Xr1psotP07cN1115v0I348A55HhYnxj2S2aTyi/IM5Nd4/xGV/MFPFGB63AyOwwv3sc6lANEHw3NpX5QTHOAqtABkzUBsnTENt+GiM77n3vkCz5i2dePBMKiicdwbvhHvsTlIsnIgi7Nh0hW9VeDqhcW+YuuJ70xYAcx7vQfigPG3RMExQVsFFygMMDcBgWdwP+Vn/mgYmLMzcMSAS94DZ7HXtOzgDk00Aj/5Z09ksEBaQlDqwRNCJ3FA7tuhOgcD8EScubnHPif0U7KEZDZrXOefkjmppgugQJnfu3Em2gafg1mkaFB2BKvxjmsLinYTVS/bsJ9e9hlq2CslgDU2bMtx9Y/ZhoYXCECK8Hd36n8xWx+gYU8yxr75iTCoP6j3cfQnhcaI56cwzz9Amn2D7fLg/jsEKzMKnXIHJ5h5tGsL51HgGWAvu15rt2WefE/P9Q98F7g1tLCmHGjmm8kH/VXLCR4tPy0vTDAarQGuG7w6b2izccUOjQ1+bNTZx+53MPrQs5BeamN0OWsWZyik5/WLu6+K1/75qO3i3Tu4LjFeqGK8hgI6ucOuQSGiSar+PdI2fzkEAhBd84elLyj88fPgxCpTwOX3Cw5xzTvTxLeFhU3KMgg0OTWOxBAXCWCsx7Edz1lQ03B/xJ/WM4dfEOkaTYHL6PVDQhXZTR48Vxhluq7LoIWP7QNjHssRKbRbu1ECQp5agQLzR3olTEabu9Kb2flz7LFI7sYyPBEiABEjAGwLULLzhzrtmcAIVK1WUHCfZdJbB0fDx0ikBCot0mnFMtr8JDBxwh78TyNSRQAoJsBkqhcAYnARIgAQyIwEKi8yY63xmEiABEkghAQqLFAJjcBIgARLIjATi2mcBe+0ZOpEgRpZiKnFMBR3NXl4HBOmMsIvNfD2Y/6m1TnwHMzjrMIp0iU70d47a3LfSeJI7XQBGxW74aoOZTdPGhS1GUWI0ePESxQXTS4Q7XQ9BdD59aaujbZM7jXd4HDwmARIggYxCIG6aBQaw6AhMM7QfA3Gef/4FuV2nPojkMBVD02bNBNMNnKW225j/qEOHjmZCOITHtBet27QzA4VWr/5SWrZqYwYQRoor/BymD7n77mFmPim3ny61Kbq4kpmb39rDW38MILr9jgHywIPDRVe6sqe5JQESIIFMSyBumsW3324WHYIvixYuMKM26+lMqSjwX9SZTDFQCoU1RihiAj/M4bTmy9XO/PSYERZTLyMMJoV74cUXzZz4g3UOfTidCkHXHHhbMM9KLIcJzz7XCeuwUAtmWh069O6Q4EV1UjSMisX88W7tAvMJ5c9fQKe5Ds4NE3JRKh9gsjykLZK7Tuf/gbv3vvvkmWdGhWhakcL76Rwma/zuu8iTzWE209SamwrTkaclH0x8iXmnMC12mTJXmMWB0tPgyFWrVotO1yGYb806fCc6TYX5Fpro/Gh2AkD4Y34kaOCYth35VkfnVnM7XUHRzGWGSR6h8ccage6+jvvpj0DcNIuLL75IdDIfMyUFsPysBX8+XRfADtHvptMhDBg4yCHmHp2KYfAQJFgjAA7Td9evf7UTtmGDBvKhTmKWlMMCP5i5tn379mZBm/AJ1jCtRkcVTFjnwe2mvvWWdO7cMWTWU7d/au5DA9N5jEJ+mFBsuGo9R44cNtrVUZ08UHdS87ZxjwuTCH61caP56VKw8ubkKc7x3r3B6cZPJhHvf/CBmTXYXgutMK34jBjxhNSuU1cn0FtqCtYXXxotOmeVTcopbcOf65Qii3Ixpk7po7M2Y0VA6/CtYQZoaO+YZqJV67a6CuAa6y039ewlE16faN7DATp5ICaitA4rDeoSrMYPYTAjNF0GJhDPiQTHjhtn1h/GmspYqxdrzFqnM1UGtAZvD83a3FiIXV9ks84tJtWDw+SCmHDLvdA8Jl/DJHOxHCadwyR8OoujCYZJ3HSmVucS/SACFStVCehsk2aiOtUwjB/WeMaauDjGWsBf6WRyKXKnMJEg7qMCzKzrrM125rYq4ELWncbEbFivF8+HSQBVM3GSp6vIJVrPGfHpHD4mDBaPx/NZBz/V3uxhoi3YYGJHt7P3xzlM3uaOzx3OvX/jTT0DI0Y87j7l7GNiRMSD5wl3eB7t73JOgwXWXR43bry5LybYi8YHFyH9YBXJ4b23aUdeq9COFMw599prE8x6ydtdk8s5nq6dSM+DNOrcTyYU+LmfCScjPZeNEhPSYS1q+37a8yeTD5jgDxMVVqhQyUZjJsVr1+465/iFF14MdO3a3RxjwkKsTW7vjW8Gk+mBKdKF7wSTMcLhHYOfriNijvkv4xCwEwnGrRkK8hWV4WzZspo1lbUwkOOu9QWw/KDbwX+5Nl1gQjUzaVWOYNIwySFcLtciI1go5S+dxCyW05fYrBFR/+qgRoKlPSdPmSLXXFM/5DI0c1WoUF7mzJ1rOsFnaK0eq+YlZ26ckIhS6QDTlKOP51Zd/xhupxoHVK5STX75+UczYeDQYfdIbp1gEGuDY56cX3Wu+6dHPmXWhMa5o0eP6PNUlKlT3jTGBLN0oae58+aZVdx+0KYETGuOpT4rVqqg2svDZvK683R1r7FjX3FWVMOaDjfeeJMc0iVtsRbz1bqU5fhxY41WiPuXK1fWLFm7bdt2ueeeodK1S5cUP70WQNKnbz9To8XznquT0U2dOlkK6NKSWhBK++s7CpZXxcRwmLAOi/xgWnOsgIgpvzEV94ABt0tVXY0unA/m1nlfp3DHpHt/6gSZnbt0lgcfuN+kETXpLl26mTUjMAcXpqP/Tp/34Yce0nWfg4tuRXoY3A/raxcsWDCSt9E0oj0P8rBxk2bO1Ox43gsvvEBefOF5Y/hx/wMPJnqudm3bmv4+THEOLf3nn3+RYdqMat+LlOYDmpLQ/4YV4ZZpM6t1+OZCtHZdIfJJ7efTos5ocFjwyH4Ldk2a9brOefbs2cx0+fCHwzPVqlVTln74oXk/bPzcZiAC8dIsPvzwI1MrQW0WTuewNzUR1LyScvpBBzCdtC4CY2p8mAoZtWjroIFc06ChPYy47dvvVjPVN6Z9xg9aAn72/lazwMU6n7yZJhr7devVD+hCO9hNc80CNTlMTazrX5v74x/yB5oVatFwmPIaUyOjtgkH7Q3+DzzwoKnx6boGZvpjXSjG+OPZ4K8rB5pjTA2N41at2wRUEJhaLWr+Tz75lPFHDb9ho8ZmOmjUeKHZYQrxZcuCWqC9vwomEz45/yJpFg8+ONxMwYz0olbf79b+jvahzVaBG268yYna5hlOYApuPJN1kfhcellBZ8pzTLuNfMezwiHulq1am/cAmhU0HvBwT11u47Zb1JoxbTTex2gu1vPYNOoaEKYGDq54XuSZdeHPpf0IRuO12rf2/5h3w9byU5IP4Iepxrdu/cG8227NAtNjWy0eacG3Bx7Y3n//AwE19LBJNFto9NDskf8qpEP87h46LIAfXcYiYDWLuPVZoGaPGqldza5p0ybG3BXt80k5mKpieczPtBYJU1vso7ZrHVYSw7loDp2e8+cv0JrZfF2BbZ35bfxqvZQrW9asyhd+XcuWLbTTb5NZwhCLyMSqYYZfm1rHqEHDAmvgwAEhHYyR4seqd0WLBpeUrVe3ngkCowCYGmPRphq6WMtK5W8dan128RqYMGN6Z2h2qIFjNtB69eqZTluEh1EBFr0pV66cdlx+qQu0fGtqv7Nnz7XRmTWE7UJFzskU7qCmW03Xsf7qq41GKyqhaw7PnhO8B1b0++STT2XChNeNVpFcM2mbBGgb6HyGwwI8BQte7vBYqhoHFuRBnOgX69Yt8sqCNi5ssYiRFvAxp9aO9Tw2Lmi3yAswxxrvy/UZo7ml2ieH/MH01ehP0CYznfH0EjUvX+JcgrWck5MPWFyqT98+ZqXEgIT2fUFzh6ZunZ0WG9oc/NwaPcIgrOPnug5+CAs/uoxJIG7NUCjM5s2fb5qVMP0yzGNhSYJCAQ4dnufqWgwoqDGG4hzdRxMEHCxpNmrn6BOPB9eGuO7adtoM8pqqy/XlD/1oZsyYIY89+qgJG+nfrFmztLAoY5ZJdft37dZFxminHFaUcztMtYx0aN+K3HZb/4hrHrjDx2N/lDY/nXZaLumf0PwU6x6lS5dyvO2Sj0V1bIp1+KAPHz5iD3Xx92Ih41vwURcreiI8jm14FIwozEynf5YsThx2HXOcKFqsqHP+ZHd2qwUOlsn8WleAs65kyZKm6ahxo0byxqSJ8pyaWz/x5JPSt29fGXDH7cnOl7LaTOZ2KHBh1QOHVeDuuutOxxtTeyc1JXSBAvnNvXfs2BF1WddYz2NvhuY765AmGDBEc1j74ZAaYKAT2TpYKWmd1R4mKx+wFj2a2Ybous5ovtP+ITmizXPYL6hNapgmG81+1h08GNxHUzD8tN/Hepkt/PEuQOi5r4Mn/M7X6+gyJoG4CQssv4jlQStVrmKEwr9aS0Hhf7muvws3adIkuSTvJaaQxoC8IUPulCxaSMGhABylC5fbj+t2LSi+3dxPa7hlzMfSQ5e9bN68mQkb6R/6Jm688YZEXm1at5b77nvApMtaZdlAWHIUa4Gjhp7WDrVrLK25eNF7IYV6tHSEpz1aOHs+W9ZsdjfJbX5d4hb9R4O1fd7yD78o0gJC4WGSOkYtuWnTplHNn2vqetz4QRPt1LGzFFZNsnXrViZad4EZ6T6x+EArQ+WkevVq5lJtojFWQJHisefQtwEW0/X9sO321s9uk3oehIuVLvi7nyt/Ps0H1WbGj3s1qjlqcvIBy7H++8+/qkEFl4qFAMLCRtqJbfqpUGn4bssJrX2Lau3QPNFPgQoIlvm0DloDBCa0+rPOPEstHfc6lUGEgcZ/ffugube9htuMQyBuzVConY7Ujtctm79R1XmhfLNpo1lX26Kb8fZ0Zx1t1Oq//XaTNjstly9WrpAN69cJVHbr0Lzy2vhxen6tbNZwD9x/n/WKuF36wfsRO12hQWzfttWs4Y2Pfu2a1c71KJh279oZskDLzh0/mzEgTqA47KD5CZ2YvXr11LEd+U1HKTp/8UMHbVo71LRhT//sc885a0Frv4Wzn1rpQaEyRYW6bZbUfgvBesRwKLDQEQ9XVjVEjMU5P09wHeJSqlWt37DB+J3MPxg46BK0ZlYBNLPospjJigYdw5NVG4bZKfIGDlqYrXnHep7k3CD8udBMhSajF/R+4A+nVlS6omVwPzlxIgzSvW7dGuc3fvxYyas8cQ5r2V+rWvusd2ebZ8G7+MqrrzpCuUnjRqqJ/KSm68vN7V4dO06bP4saQwg0L+M9GasDaCHkPvv8c9MaEKsSl9w0M5w/CcRNWNjHxSAd1FTCa0FQc91jKyBcoPbmzh191TIU9hlt0M+aL9eooPzWFEJqpiju37JlwY/Uskyr7Zgxo7Xt+R9R02MzOLJK1WqmXyE17z9Ap/C+SqdZaa12/VeUKSclSpZWC66p5hZqYCCNGjc1Vk41al4lNVSQ20GTXTp3EnDRtYpNn0ZK0wTNEe9RjStrSoWKleWAFsSxVl6z8WMw2rS3pgis5ZDWgoWKCLigrwIu1vPYOGJtw58L/XZvvvGGmCbVsuUNoxYtWmrfxf9iRZNiP1SSemtFBeNHSpUK9vPce88wEw84TXhtvPTt11+1jBIyc+ZMYxVnb4IBtgsXLZZixUtKz569ZfTLL5lv3fpzm7EIcA3u1M7PVFiDO7WTdLLxqbWQWZsdQjypJpSTvQc6jvft22dMZ9Hc43Ywo4623CiuQbrCKyHu62PtQzvA/aDRlNLmzRUrPgvRKmNdCy4Y4IYC3XYI2/CxnseGibWN9FzQJo4fP2YYnezzxron/KDF4rkgICI5pCFaRS6WX6S4eC59EeAa3OkrvzxJLQrTeE9lASGEZqZILpqgQFhYM52M+1E7eNU62FhJoYB87bUJxhgCfQTJdeASTRuJ9TzJiT/Sc0UrpJMTX3LDwOow2iSfiCNWGmL5Jff+DOd/AnHr4Pb/ozOFmZHAmrXr5JFHHjGdvllVUKGm/pI2p9CRAAnEJkBhEZsPfTMYgWvbtRX80MSFMTV5815sTIUz2GPycUgg1QlQWKQ6UkaYHgigiStWM1d6eAamkQTSkkDcraHS8mF4LxIgARIggfgQoLCID1fGSgIkQAIZigCFRYbKTj4MCZAACcSHAIVFfLgyVhIgARLIUAQoLDJUdvJhSIAESCA+BCgs4sOVsZIACZBAhiJAYZGhspMPQwIkQALxIUBhER+ujJUESIAEMhQBDspL7exscU9qx8j4SIAESMBzAtQsPM8CJoAESIAE/E+AwsL/ecQUkgAJkIDnBCgsPM8CJoAESIAE/E+AwsL/ecQUkgAJkIDnBCgsPM8CJoAESIAE/E+AwsL/ecQUkgAJkIDnBCgsPM8CJoAESIAE/E+AwsL/ecQUkgAJkIDnBCgsPM8CJoAESIAE/E+AwsL/ecQUkgAJkIDnBCgsPM8CJoAESIAE/E+AwsL/ecQUkgAJkIDnBCgsPM8CJoAESIAE/E+AwsL/ecQUkgAJkIDnBCgsPM8CJoAESIAE/E+AwsL/ecQUkgAJkIDnBCgsPM8CJoAESIAE/E+AwsL/ecQUkgAJkIDnBCgsPM8CJoAESIAE/E+AwsL/ecQUkgAJkIDnBCgsPM8CJoAESIAE/E+AwsL/ecQUkgAJkIDnBCgsPM8CJoAESIAE/E+AwsL/ecQUkgAJkIDnBCgsPM8CJoAESIAE/E+AwsL/ecQUkgAJkIDnBCgsPM8CJoAESIAE/E+AwsL/ecQUkgAJkIDnBCgsPM8CJoAESIAE/E+AwsL/ecQUkgAJkIDnBCgsPM8CJoAESIAE/E+AwsL/ecQUkgAJkIDnBCgsPM8CJoAESIAE/E+AwsL/ecQUkgAJkIDnBCgsPM8CJoAESIAE/E+AwsL/ecQUkgAJkIDnBCgsPM8CJoAESIAE/E+AwsL/ecQUkgAJkIDnBCgsPM8CJoAESIAE/E+AwsL/ecQUkgAJkIDnBCgsPM8CJoAESIAE/E+AwsL/ecQUkgAJkIDnBCgsPM8CJoAESIAE/E+AwsL/ecQUkgAJkIDnBCgsPM8CJoAESIAE/E+AwsL/ecQUkgAJkIDnBCgsPM8CJoAESIAE/E+AwsL/ecQUkgAJkIDnBCgsPM8CJoAESIAE/E+AwsL/ecQUkgAJkIDnBCgsPM8CJoAESIAE/E+AwsL/ecQUkgAJkIDnBCgsPM8CJoAESIAE/E+AwsL/ecQUkgAJkIDnBCgsPM8CJoAESIAE/E+AwsL/ecQUkgAJkIDnBCgsPM8CJoAESIAE/E+AwsL/ecQUkgAJkIDnBCgsPM8CJoAESIAE/E+AwsL/ecQUkgAJkIDnBCgsPM8CJoAESIAE/E+AwsL/ecQUkgAJkIDnBCgsPM8CJoAESIAE/E+AwsL/ecQUkgAJkIDnBCgsPM8CJoAESIAE/E+AwsL/ecQUkgAJkIDnBCgsPM8CJoAESIAE/E+AwsL/ecQUkgAJkIDnBCgsPM8CJoAESIAE/E+AwsL/ecQUkgAJkIDnBCgsPM8CJoAESIAE/E+AwsL/ecQUkgAJkIDnBCgsPM8CJoAESIAE/E+AwsL/ecQUkgAJkIDnBCgsPM8CJoAESIAE/E+AwsL/ecQUkgAJkIDnBCgsPM8CJoAESIAE/E+AwsL/ecQUkgAJkIDnBCgsPM8CJoAESIAE/E+AwsL/ecQUkgAJkIDnBCgsPM8CJoAESIAE/E+AwsL/ecQUkgAJkIDnBCgsPM8CJoAESIAE/E+AwsL/ecQUkgAJkIDnBCgsPM8CJoAESIAE/E+AwsL/ecQUkgAJkIDnBCgsPM8CJoAESIAE/E+AwsL/ecQUkgAJkIDnBCgsPM8CJoAESIAE/E+AwsL/ecQUkgAJkIDnBCgsPM8CJoAESIAE/E+AwsL/ecQUkgAJkIDnBCgsPM8CJoAESIAE/E+AwsL/ecQUkgAJkIDnBCgsPM8CJoAESIAE/E+AwsL/ecQUkgAJkIDnBCgsPM8CJoAESIAE/E+AwsL/ecQUkgAJkIDnBCgsPM8CJoAESIAE/E+AwsL/ecQUkgAJkIDnBCgsPM8CJoAESIAE/E+AwsL/ecQUkgAJkIDnBCgsPM8CJoAESIAE/E+AwsL/ecQUkgAJkIDnBCgsPM8CJoAESIAE/E+AwsL/ecQUkgAJkIDnBCgsPM8CJoAESIAE/E+AwsL/ecQUkgAJkIDnBCgsPM8CJoAESIAE/E+AwsL/ecQUkgAJkIDnBCgsPM8CJoAESIAE/E+AwsL/ecQUkgAJkIDnBCgsPM8CJoAESIAE/E+AwsL/ecQUkgAJkIDnBCgsPM8CJoAESIAE/E+AwsL/ecQUkgAJkIDnBCgsPM8CJoAESIAE/E+AwsL/ecQUkgAJkIDnBCgsPM8CJoAESIAE/E+AwsL/ecQUkgAJkIDnBCgsPM8CJoAESIAE/E+AwsL/ecQUkgAJkIDnBCgsPM8CJoAESIAE/E+AwsL/ecQUkgAJkIDnBCgsPM8CJoAESIAE/E+AwsL/ecQUkgAJkIDnBCgsPM8CJoAESIAE/E+AwsL/ecQUkgAJkIDnBCgsPM8CJoAESIAE/E+AwsL/ecQUkgAJkIDnBCgsPM8CJoAESIAE/E+AwsL/ecQUkgAJkIDnBCgsPM8CJoAESIAE/E+AwsL/ecQUkgAJkIDnBCgsPM8CJoAESIAE/E+AwsL/ecQUkgAJkIDnBCgsPM8CJoAESIAE/E+AwsL/ecQUkgAJkIDnBCgsPM8CJoAESIAE/E+AwsL/ecQUkgAJkIDnBCgsPM8CJoAESIAE/E+AwsL/ecQUkgAJkIDnBCgsPM8CJoAESIAE/E+AwsL/ecQUkgAJkIDnBCgsPM8CJoAESIAE/E+AwsL/ecQUkgAJkIDnBCgsPM8CJoAESIAE/E+AwsL/ecQUkgAJkIDnBCgsPM8CJoAESIAE/E+AwsL/ecQUkgAJkIDnBCgsPM8CJoAESIAE/E+AwsL/ecQUkgAJkIDnBCgsPM8CJoAESIAE/E/AERZZsmTxf2qZQhIgARIggTQnAPngCIs0vztvSAIkQAIkkG4IUFikm6xiQkmABEjAOwIUFt6x551JgARIIN0QoLBIN1nFhJIACZCAdwQoLLxjzzuTAAmQQLohkJVWUOkmr5hQEiABEvCMADULz9DzxiRAAiSQfggYYQHtghpG+sk0ppQESIAE0pIAx1mkJW3eiwRIgATSMYGQZihqF+k4J5l0EiABEogDASsXTAe3UTGyZmVTVBxAM0oSIAESSM8ErHwI0SyyZcuWnp+JaScBEiABEkhlAo5mgXhxYKXH8ePHU/lWjI4ESIAESCA9EggEApI1odVJt1nNAbQKCIxDhw6lx2dimkmABEiABFKZAOQBZAN+TjOUPbFnz55Uvh2jIwESIAESSI8Edu3adUJYQJuwgiJHjhyyZcsWOXDgQHp8LqaZBEiABEgglQjs379fvv/+e4FcMJqF+adNUdjmypXL/FatWiW///57Kt2S0ZAACZAACaQnAij/N2zY4MgEIydsx3b27NkFvzPOOEPQyb148WJZu3at/Pnnn4JODjoSIAESIIGMSwDl/sGDB2X9+vWm/Ed/BeSBlQ3Z8ejo5LaaxbFjxwQ/CAg0Sa1YscIIDFx4+PBhR3C4BYjdt9uMi5NPRgIkQALpjwCUAji7de/jXM6cOeW0006Tc845R/LkySPnnXee2T/99NONdgH5kB3/UMhji7YpXIBjRGA1jX///dcIiqNHjxo/CBO3o5Bw0+A+CZAACfiTQLiwsGaxKOshMCAczjzzTDnrrLOMVgF5YPssslutAgU+1BBcgH2cRwS4GFoFBIXVOOBvfxYJjulIgARIgAT8SSBcUODY/ozmoOU9hAP6rrGFLMAPfsYfgd0CA49phYXVNiAwbPMUBAoFhT9fBqaKBEiABGIRiCQwbPlvhQIEBLQJp69ChQj8/g8NuJKS6vEARgAAAABJRU5ErkJggg==;" parent="1" vertex="1">
                    <mxGeometry x="47" y="363" width="395" height="392" as="geometry"/>
                </mxCell>
                <mxCell id="xE52-ZA0a7gBxuOxElXl-14" value="Node&lt;br&gt;Ethos&lt;br&gt;EEDM" style="rounded=1;whiteSpace=wrap;html=1;" parent="1" vertex="1">
                    <mxGeometry x="600" y="640" width="130" height="69" as="geometry"/>
                </mxCell>
                <mxCell id="xE52-ZA0a7gBxuOxElXl-15" value="Lambda&lt;br&gt;GraphQL" style="rounded=1;whiteSpace=wrap;html=1;" parent="1" vertex="1">
                    <mxGeometry x="600" y="524.5" width="130" height="69" as="geometry"/>
                </mxCell>
                <mxCell id="0GYmkqBPqFbr-coCl5JG-1" value="Experience&lt;br&gt;GraphQL&lt;br&gt;Proxy" style="rounded=1;whiteSpace=wrap;html=1;" parent="1" vertex="1">
                    <mxGeometry x="600" y="410" width="130" height="69" as="geometry"/>
                </mxCell>
            </root>
        </mxGraphModel>
    </diagram>
</mxfile>